<svg xmlns="http://www.w3.org/2000/svg" width="127" height="52" viewBox="0 0 127 52" fill="none">
<path d="M106.404 11.2131C98.0467 11.2131 90.8741 16.1968 87.7156 23.2787L90.0845 27.4099C91.927 20.1312 98.5731 14.8197 106.404 14.8197C115.682 14.8197 123.249 22.3607 123.249 31.6066C123.249 40.8525 115.682 48.3936 106.404 48.3936C105.285 48.3936 104.101 48.2624 102.982 48.0657C100.152 47.4755 97.5202 46.164 95.3487 44.2624C94.2959 43.3444 93.3088 42.2296 92.5192 41.1148C91.598 39.8034 90.9399 38.2952 90.1503 36.9181C90.0187 36.6558 89.8213 36.3279 89.6897 36.0657C89.4923 35.6722 89.2291 35.2788 89.0316 34.8853L86.0705 29.705L85.6099 28.8525L80.9379 21.0492C80.8721 20.9181 80.8063 20.8525 80.7405 20.7869C80.7405 20.7869 80.7405 20.7214 80.6747 20.7214C79.8192 19.4099 78.898 18.2295 77.7793 17.1148C74.0943 13.4426 69.0275 11.2131 63.3684 11.2131C55.0114 11.2131 47.8389 16.1968 44.6804 23.2787L47.0493 27.4099C48.8918 20.1312 55.5379 14.8197 63.3684 14.8197C67.6456 14.8197 71.528 16.3935 74.555 19.0164C75.8052 20.1312 76.8581 21.3771 77.7793 22.8197C77.8451 22.8853 77.8451 22.9509 77.9109 23.0164C78.0425 23.2132 78.1083 23.4099 78.2399 23.6066C78.3715 23.8033 78.4373 24 78.5689 24.1968L80.7405 28.1312L82.4513 31.1476L83.899 33.705L85.2809 36.1312L88.9 42.0329C92.4534 48.0001 99.0337 52.0001 106.535 52.0001C113.51 52.0001 119.696 48.5247 123.381 43.1476V52.0001H127V31.082C126.605 20.0656 117.524 11.2131 106.404 11.2131Z" fill="#202456"/>
<path d="M79.7533 35.6722C77.9109 42.9509 71.3305 48.3935 63.4342 48.3935C62.3155 48.3935 61.1311 48.2624 60.0124 48.0657C57.1829 47.4755 54.5508 46.164 52.3135 44.2624C51.2606 43.3444 50.2736 42.2296 49.4839 41.1148C49.1549 40.5902 48.0363 38.7542 46.8518 36.6558L42.9694 29.8361L42.5088 28.9837L40.7979 26.0984V0H37.1787V20.1968C36.0601 18.5574 34.6782 17.0492 33.1648 15.8033L32.6383 15.4099C32.5067 15.2787 32.3093 15.1476 32.1777 15.0164C31.9803 14.8853 31.8487 14.7541 31.6513 14.623C31.3223 14.3607 30.9275 14.164 30.5984 13.9672C30.401 13.8361 30.2036 13.7705 30.0062 13.6394C29.8088 13.5082 29.6114 13.4427 29.414 13.3115C29.0192 13.1148 28.6243 12.9181 28.2295 12.7869C27.5057 12.459 26.7819 12.1967 25.9922 12C25.2684 11.8033 24.4788 11.6066 23.7549 11.4754C23.5575 11.4099 23.3601 11.4099 23.1627 11.4099C22.7021 11.3443 22.3072 11.2787 21.8466 11.2787C21.5834 11.2787 21.3202 11.2787 21.1228 11.2131C20.9254 11.2131 20.728 11.2131 20.4648 11.2131C20.2016 11.2131 20.0041 11.2131 19.7409 11.2131C19.6093 11.2131 19.4777 11.2131 19.3461 11.2131C19.2145 11.2131 19.0171 11.2131 18.8855 11.2787C18.4907 11.2787 18.03 11.3443 17.6352 11.4099C17.4378 11.4099 17.2404 11.4754 17.043 11.4754C16.9772 11.4754 16.9772 11.4754 16.9114 11.4754C16.6482 11.541 16.385 11.541 16.1218 11.6066C15.7927 11.6722 15.3979 11.7377 15.0689 11.8689C14.8715 11.9345 14.7399 12 14.5425 12C14.4767 12 14.4109 12.0656 14.3451 12.0656C14.1477 12.1312 13.9503 12.1967 13.8186 12.2623C13.4238 12.3935 13.0948 12.5246 12.7658 12.6558C12.5684 12.7213 12.371 12.7869 12.1736 12.9181C11.5155 13.2459 10.8575 13.5738 10.1995 13.9017C10.0679 13.9672 9.87047 14.0984 9.73886 14.164C9.21243 14.4918 8.68601 14.8197 8.22539 15.2131C8.09378 15.3443 7.89637 15.4754 7.76477 15.6066C7.63316 15.7377 7.43575 15.8689 7.30414 16C7.17254 16.1312 6.97513 16.2623 6.84352 16.3935C6.71192 16.5246 6.5145 16.6558 6.3829 16.7869C6.25129 16.9181 6.11969 17.0492 5.92228 17.1804C5.79067 17.3115 5.65907 17.4427 5.52746 17.6394C5.39585 17.7705 5.26425 17.9017 5.19844 18.0328L5.13264 18.0984C5.00104 18.2295 4.86943 18.3607 4.73782 18.4918C4.47461 18.8197 4.2114 19.1476 3.94819 19.4755C3.81658 19.6066 3.75078 19.8033 3.61917 19.9345C2.30311 21.9017 1.25026 24.0656 0.658031 26.4263C0.263212 27.8689 0.0658031 29.4427 0 31.0165C0 31.1476 0 31.3443 0 31.4755C0 31.8033 0 32.1968 0 32.5247C0 32.6558 0 32.787 0 32.9181C0 33.0492 -1.00506e-06 33.246 0.0658021 33.3771C0.0658021 33.5083 0.0658021 33.5738 0.0658021 33.705C0.0658021 33.8361 0.0658011 33.9673 0.131604 34.0984C0.131604 34.2952 0.197411 34.4919 0.197411 34.623C0.263214 34.9509 0.329014 35.2788 0.394818 35.6066C0.460621 35.9345 0.526426 36.2624 0.592229 36.5902C0.723835 37.0493 0.855439 37.5738 1.05285 38.0329C1.11865 38.164 1.11865 38.2296 1.18446 38.3607C1.25026 38.4919 1.25026 38.5575 1.31606 38.6886C1.77668 39.8689 2.30311 41.0493 2.96114 42.0984C3.02694 42.2296 3.09275 42.3607 3.15855 42.4263C3.29016 42.623 3.35596 42.7542 3.48757 42.9509C3.68497 43.2132 3.88238 43.4755 4.01399 43.7378C4.2114 44.0001 4.40881 44.2624 4.60622 44.4591C4.93523 44.8526 5.26425 45.1804 5.59326 45.5739C5.72487 45.705 5.79067 45.8362 5.92228 45.9017C6.25129 46.2296 6.64611 46.5575 6.97513 46.8853C7.10673 47.0165 7.23834 47.0821 7.36994 47.2132C7.63316 47.4099 7.89637 47.6067 8.15958 47.8034C8.29119 47.9345 8.4228 48.0001 8.5544 48.0657C8.68601 48.1312 8.81761 48.2624 8.94922 48.328C9.21243 48.5247 9.47565 48.7214 9.80466 48.8526C10.1995 49.1149 10.6601 49.3772 11.1207 49.5739C11.2523 49.6394 11.3839 49.705 11.5813 49.7706C11.7129 49.8362 11.9104 49.9017 12.042 49.9673C12.1736 50.0329 12.371 50.0985 12.5026 50.164C12.7658 50.2952 13.0948 50.3608 13.358 50.4919C13.6212 50.5575 13.8845 50.6886 14.0819 50.7542C14.2135 50.8198 14.3451 50.8198 14.4767 50.8853C14.6083 50.9509 14.6741 50.9509 14.8057 51.0165C14.9373 51.0821 15.0689 51.0821 15.2005 51.1476C15.3979 51.2132 15.5953 51.2788 15.7927 51.2788C15.9243 51.2788 16.056 51.3444 16.1218 51.3444C17.043 51.5411 18.03 51.6722 19.0171 51.7378C19.2803 51.7378 19.6093 51.7378 19.8725 51.8034C20.0699 51.8034 20.2015 51.8034 20.399 51.8034C20.5964 51.8034 20.7938 51.8034 20.9912 51.8034C21.1228 51.8034 21.3202 51.8034 21.4518 51.8034C21.5834 51.8034 21.7808 51.8034 21.9124 51.8034C22.1756 51.8034 22.4389 51.7378 22.7021 51.7378C23.1627 51.6722 23.6233 51.6067 24.0181 51.5411C24.0839 51.5411 24.2155 51.4755 24.2813 51.4755C24.4129 51.4755 24.6104 51.4099 24.742 51.3444C24.8078 51.3444 24.8736 51.2788 25.0052 51.2788C25.4658 51.1476 25.9264 51.0821 26.3212 50.9509C26.5186 50.8853 26.716 50.8198 26.9135 50.7542C26.9793 50.7542 26.9793 50.7542 27.0451 50.6886C27.7689 50.4263 28.4269 50.164 29.085 49.8362C29.5456 49.6394 29.9404 49.3772 30.401 49.1804C30.5984 49.0493 30.7958 48.9181 31.0591 48.787C31.2565 48.6558 31.4539 48.5247 31.6513 48.3935C31.8487 48.2624 32.0461 48.1312 32.2435 48.0001C32.4409 47.8689 32.6383 47.7378 32.8357 47.6067C33.0331 47.4755 33.2306 47.3444 33.428 47.1476C33.9544 46.6886 34.5466 46.2296 35.0072 45.705C36.7181 44.0001 38.1 41.9673 39.087 39.8034L36.7181 35.6066C36.6523 35.8034 36.5865 36.0656 36.5207 36.2624C36.4549 36.4591 36.3891 36.6558 36.3233 36.8525C36.3233 36.9181 36.3233 36.9181 36.2575 36.9837C36.1917 37.1804 36.1259 37.3771 36.0601 37.5738C35.9943 37.7706 35.8627 38.0329 35.7969 38.2296C35.7311 38.4263 35.5995 38.623 35.5337 38.8198C35.4021 39.0165 35.3363 39.2132 35.2047 39.4099C35.0072 39.8034 34.744 40.1968 34.4808 40.5902C34.086 41.1804 33.6912 41.705 33.2306 42.2296C32.9673 42.5575 32.6383 42.8853 32.3093 43.2132C32.1777 43.3444 31.9803 43.5411 31.8487 43.6722C31.7171 43.8034 31.5197 43.9345 31.3881 44.0657L31.3223 44.1312C31.1907 44.2624 31.0591 44.3935 30.9275 44.4591C30.8616 44.5247 30.7958 44.5247 30.73 44.5903C30.5984 44.7214 30.401 44.8526 30.2694 44.9181C30.072 45.0493 29.8746 45.1804 29.743 45.3116C29.414 45.5083 29.1508 45.705 28.8218 45.9017C28.5585 46.0329 28.2295 46.2296 27.9663 46.3607C27.8347 46.4263 27.7031 46.4919 27.5057 46.5575C27.3741 46.623 27.2425 46.6886 27.1109 46.7542C27.0451 46.7542 26.9793 46.8198 26.9135 46.8198C26.716 46.8853 26.5845 46.9509 26.387 47.0165C26.3212 47.0165 26.2554 47.0821 26.1896 47.0821C26.058 47.1476 25.8606 47.2132 25.729 47.2132C25.4 47.3444 25.0052 47.4099 24.6762 47.5411C24.4129 47.6067 24.1497 47.6722 23.8865 47.7378C23.6891 47.8034 23.4917 47.8034 23.2285 47.869C23.0969 47.869 22.8995 47.9345 22.7679 47.9345C22.6363 47.9345 22.5705 47.9345 22.4389 48.0001C22.3073 48.0001 22.1756 48.0657 21.9782 48.0657C21.8466 48.0657 21.715 48.0657 21.5834 48.0657C21.4518 48.0657 21.3202 48.0657 21.1886 48.0657C20.9254 48.0657 20.6622 48.0657 20.399 48.0657C15.6611 48.0657 11.3839 46.0985 8.35699 43.0165C8.02797 42.6886 7.69896 42.3607 7.43575 41.9673C6.84352 41.246 6.3171 40.5247 5.85648 39.6722C5.59326 39.2788 5.39585 38.8853 5.19844 38.4263C5.06684 38.2296 5.00103 38.0329 4.93523 37.7706C4.67202 37.1148 4.40881 36.4591 4.2114 35.8034C4.1456 35.6066 4.07979 35.3443 4.01399 35.1476C3.68497 33.9017 3.55337 32.5902 3.55337 31.2788C3.55337 30.6886 3.55337 30.0984 3.61917 29.5738C4.07979 24.7869 6.58031 20.6558 10.1995 17.9017C10.5943 17.5738 10.9891 17.3115 11.4497 17.0492C11.6471 16.9181 11.9104 16.7869 12.1078 16.6558C12.5684 16.3935 13.029 16.1968 13.4896 16C15.5953 15.082 17.8984 14.5574 20.399 14.5574C20.6622 14.5574 20.8596 14.5574 21.1228 14.5574C21.1886 14.5574 21.2544 14.5574 21.2544 14.5574C21.5176 14.5574 21.7808 14.5574 21.9782 14.623C22.044 14.623 22.044 14.623 22.1098 14.623C22.3073 14.623 22.5705 14.6886 22.7679 14.6886C22.8337 14.6886 22.9653 14.6886 23.0311 14.7541C23.2285 14.8197 23.4259 14.8197 23.6233 14.8853C23.7549 14.8853 23.8865 14.9509 24.0181 14.9509C24.4129 15.0164 24.8078 15.1476 25.2026 15.2787C25.3342 15.3443 25.5316 15.3443 25.6632 15.4099C26.058 15.541 26.387 15.6722 26.7161 15.8033C26.8477 15.8689 27.0451 15.9345 27.1767 16C27.4399 16.1312 27.7689 16.2623 28.0321 16.3935C28.0979 16.3935 28.1637 16.4591 28.1637 16.4591C28.2953 16.5246 28.4269 16.5902 28.5585 16.6558C28.8876 16.7869 29.1508 16.9836 29.4798 17.1804C29.6114 17.2459 29.743 17.3771 29.9404 17.4427C30.2036 17.5738 30.401 17.7705 30.6642 17.9673C30.73 18.0328 30.73 18.0328 30.7958 18.0984C30.9275 18.2295 31.0591 18.2951 31.1907 18.4263C31.3223 18.5574 31.4539 18.623 31.5855 18.7541C31.7171 18.8853 31.8487 18.9509 31.9803 19.082C32.1119 19.2132 32.2435 19.3443 32.3751 19.4755C32.6383 19.7377 32.8357 20 33.099 20.2623C33.3622 20.5246 33.5596 20.7869 33.757 21.0492C34.086 21.4427 34.3492 21.9017 34.6782 22.2951L34.744 22.3607C35.073 22.8853 35.3363 23.3443 35.5995 23.8689L35.6653 24L36.7839 25.9017L40.8637 33.1804L43.2326 37.0493C43.8249 38.0984 44.6803 39.4755 45.2725 40.3935C45.6673 41.0493 45.9964 41.5083 45.9964 41.5083C49.5497 47.4755 56.13 51.4755 63.6316 51.4755C70.6067 51.4755 76.7922 48.0001 80.4772 42.623V51.4755H84.0963C84.0963 51.4755 84.0963 46.9509 84.0963 42.164L81.53 37.9673L79.7533 35.6722Z" fill="#202456"/>
</svg>